Coordinates
version=1
nRows=4
nColumns=63
inDegrees=yes

Units are S.I. units (second, meters, Newtons, ...)
If the header above contains a line with 'inDegrees', this indicates whether rotational values are in degrees (yes) or radians (no).

endheader
time	pelvis_tilt	pelvis_list	pelvis_rotation	pelvis_tx	pelvis_ty	pelvis_tz	hip_flexion_r	hip_adduction_r	hip_rotation_r	knee_angle_r	knee_angle_r_beta	ankle_angle_r	subtalar_angle_r	mtp_angle_r	hip_flexion_l	hip_adduction_l	hip_rotation_l	knee_angle_l	knee_angle_l_beta	ankle_angle_l	subtalar_angle_l	mtp_angle_l	L5_S1_Flex_Ext	L5_S1_Lat_Bending	L5_S1_axial_rotation	L4_L5_Flex_Ext	L4_L5_Lat_Bending	L4_L5_axial_rotation	L3_L4_Flex_Ext	L3_L4_Lat_Bending	L3_L4_axial_rotation	L2_L3_Flex_Ext	L2_L3_Lat_Bending	L2_L3_axial_rotation	L1_L2_Flex_Ext	L1_L2_Lat_Bending	L1_L2_axial_rotation	L1_T12_Flex_Ext	L1_T12_Lat_Bending	L1_T12_axial_rotation	Abs_r3	Abs_r2	Abs_r1	Abs_t1	Abs_t2	neck_flexion	neck_bending	neck_rotation	arm_flex_r	arm_add_r	arm_rot_r	elbow_flex_r	pro_sup_r	wrist_flex_r	wrist_dev_r	arm_flex_l	arm_add_l	arm_rot_l	elbow_flex_l	pro_sup_l	wrist_flex_l	wrist_dev_l
     11.81700000	    -40.31043678	      2.19975974	      5.07456517	     -0.15336985	      1.02841869	      0.03607216	     77.71376587	     -8.22541243	     -1.30628365	     45.75397754	      0.79855755	      3.17375185	    -16.16285974	      0.00000000	    107.68256750	     -2.36616565	      2.44075602	    115.89031544	      2.02266758	     -0.17833607	    -15.12562277	      0.00000000	     -0.06246655	     -0.25335215	     -0.96304691	     -0.11600663	     -0.33695836	     -1.02323734	     -0.10262630	     -0.61600041	     -1.02323734	     -0.07139302	     -0.61600041	     -0.84266604	     -0.05800644	     -0.51663570	     -0.78247561	     -0.03569339	     -0.39244248	     -0.72228518	     -0.44619234	     -2.86597018	     -5.35617798	      0.00000000	      0.00000000	     -0.00000000	      0.00000000	      0.00000000	     64.58029450	    -13.51401056	     24.03564756	     44.44255973	     63.14863993	      0.00000000	      5.00000014	     67.87885656	    -18.66585187	     27.99614203	     45.82867421	     62.94517957	      0.00000000	      5.00000014
     11.82500000	    -40.37084451	      2.42246753	      5.35292977	     -0.15365435	      1.02823982	      0.03579510	     76.57561410	     -8.52254167	     -1.39216887	     44.75837907	      0.78118108	      3.05904001	    -16.25021500	      0.00000000	    109.08940689	     -2.20531450	      2.03836609	    116.37324951	      2.03109637	     -0.32459194	    -15.22661388	      0.00000000	     -0.06158637	     -0.28849334	     -0.99745045	     -0.11437205	     -0.38369615	     -1.05979111	     -0.10118025	     -0.70144271	     -1.05979111	     -0.07038706	     -0.70144271	     -0.87276915	     -0.05718910	     -0.58829563	     -0.81042849	     -0.03519045	     -0.44687619	     -0.74808784	     -0.43990528	     -3.26349440	     -5.54752019	      0.00000000	      0.00000000	     -0.00000000	      0.00000000	      0.00000000	     64.57305596	    -13.52255267	     23.86190922	     44.50574485	     63.15348978	      0.00000000	      5.00000014	     67.99485454	    -18.68604256	     28.25782997	     45.95080219	     63.00332412	      0.00000000	      5.00000014
     11.83300000	    -40.43940770	      2.66408234	      5.55819114	     -0.15401317	      1.02817249	      0.03553849	     75.57772226	     -8.76132481	     -1.34005045	     44.02968785	      0.76846302	      2.93147887	    -16.29358660	      0.00000000	    110.43905167	     -2.12895302	      1.60009055	    116.68528700	      2.03654245	     -0.30826789	    -15.28190171	      0.00000000	     -0.06136393	     -0.32407822	     -1.02166724	     -0.11395895	     -0.43102404	     -1.08552144	     -0.10081479	     -0.78796379	     -1.08552144	     -0.07013283	     -0.78796379	     -0.89395883	     -0.05698254	     -0.66086031	     -0.83010463	     -0.03506335	     -0.50199717	     -0.76625043	     -0.43831638	     -3.66603768	     -5.68220668	      0.00000000	      0.00000000	     -0.00000000	      0.00000000	      0.00000000	     64.57409661	    -13.50748824	     23.72153543	     44.53699911	     63.15767581	      0.00000000	      5.00000014	     68.08045532	    -18.73322314	     28.45670257	     46.11221586	     63.04753862	      0.00000000	      5.00000014
     11.84200000	    -40.51607588	      2.92394071	      5.68869118	     -0.15441551	      1.02821169	      0.03536777	     74.69899278	     -8.95154746	     -1.20402001	     43.53284140	      0.75979142	      2.88039568	    -16.32071678	      0.00000000	    111.71021581	     -2.14730867	      1.14511515	    116.80879741	      2.03869811	     -0.14983073	    -15.22648439	      0.00000000	     -0.06165241	     -0.36071305	     -1.03998461	     -0.11449469	     -0.47974836	     -1.10498365	     -0.10128874	     -0.87703772	     -1.10498365	     -0.07046254	     -0.87703772	     -0.90998653	     -0.05725043	     -0.73556606	     -0.84498750	     -0.03522819	     -0.55874452	     -0.77998846	     -0.44037698	     -4.08045819	     -5.78408240	      0.00000000	      0.00000000	     -0.00000000	      0.00000000	      0.00000000	     64.56686657	    -13.44783861	     23.55742412	     44.56731198	     63.13881202	      0.00000000	      5.00000014	     68.14707857	    -18.84720031	     28.66198469	     46.33594304	     63.07173167	      0.00000000	      5.00000014
